<svg xmlns="http://www.w3.org/2000/svg" width="900" height="960" viewBox="0 0 900 960">
<rect width="100%" height="100%" fill="#ffffff"/>
<text x="24" y="32" font-family="Arial" font-size="18" fill="#111111">unsafe_acceptance_rate</text>
<text x="24" y="71" font-family="Arial" font-size="12" fill="#333333">mavs_gc_accept_reject_only_no_esca</text>
<rect x="260" y="55" width="2" height="22" fill="#2f6f73"/>
<text x="276" y="71" font-family="Arial" font-size="12" fill="#111111">0.0000</text>
<text x="24" y="101" font-family="Arial" font-size="12" fill="#333333">mavs_gc_delayed_threshold</text>
<rect x="260" y="85" width="2" height="22" fill="#2f6f73"/>
<text x="276" y="101" font-family="Arial" font-size="12" fill="#111111">0.0000</text>
<text x="24" y="131" font-family="Arial" font-size="12" fill="#333333">mavs_gc_fixed_severity</text>
<rect x="260" y="115" width="2" height="22" fill="#2f6f73"/>
<text x="276" y="131" font-family="Arial" font-size="12" fill="#111111">0.0000</text>
<text x="24" y="161" font-family="Arial" font-size="12" fill="#333333">mavs_gc_fixed_threshold</text>
<rect x="260" y="145" width="2" height="22" fill="#2f6f73"/>
<text x="276" y="161" font-family="Arial" font-size="12" fill="#111111">0.0000</text>
<text x="24" y="191" font-family="Arial" font-size="12" fill="#333333">mavs_gc_full_mavs_gc</text>
<rect x="260" y="175" width="2" height="22" fill="#2f6f73"/>
<text x="276" y="191" font-family="Arial" font-size="12" fill="#111111">0.0000</text>
<text x="24" y="221" font-family="Arial" font-size="12" fill="#333333">mavs_gc_heterogeneous_specialists</text>
<rect x="260" y="205" width="2" height="22" fill="#2f6f73"/>
<text x="276" y="221" font-family="Arial" font-size="12" fill="#111111">0.0000</text>
<text x="24" y="251" font-family="Arial" font-size="12" fill="#333333">mavs_gc_homogeneous_specialists</text>
<rect x="260" y="235" width="2" height="22" fill="#2f6f73"/>
<text x="276" y="251" font-family="Arial" font-size="12" fill="#111111">0.0000</text>
<text x="24" y="281" font-family="Arial" font-size="12" fill="#333333">mavs_gc_no_diagnostics</text>
<rect x="260" y="265" width="2" height="22" fill="#2f6f73"/>
<text x="276" y="281" font-family="Arial" font-size="12" fill="#111111">0.0000</text>
<text x="24" y="311" font-family="Arial" font-size="12" fill="#333333">mavs_gc_no_escalation</text>
<rect x="260" y="295" width="2" height="22" fill="#2f6f73"/>
<text x="276" y="311" font-family="Arial" font-size="12" fill="#111111">0.0000</text>
<text x="24" y="341" font-family="Arial" font-size="12" fill="#333333">mavs_gc_no_severity</text>
<rect x="260" y="325" width="2" height="22" fill="#2f6f73"/>
<text x="276" y="341" font-family="Arial" font-size="12" fill="#111111">0.0000</text>
<text x="24" y="371" font-family="Arial" font-size="12" fill="#333333">mavs_gc_noisy_severity</text>
<rect x="260" y="355" width="2" height="22" fill="#2f6f73"/>
<text x="276" y="371" font-family="Arial" font-size="12" fill="#111111">0.0000</text>
<text x="24" y="401" font-family="Arial" font-size="12" fill="#333333">mavs_gc_over_sensitive_threshold</text>
<rect x="260" y="385" width="2" height="22" fill="#2f6f73"/>
<text x="276" y="401" font-family="Arial" font-size="12" fill="#111111">0.0000</text>
<text x="24" y="431" font-family="Arial" font-size="12" fill="#333333">mavs_gc_randomized_diagnostic</text>
<rect x="260" y="415" width="2" height="22" fill="#2f6f73"/>
<text x="276" y="431" font-family="Arial" font-size="12" fill="#111111">0.0000</text>
<text x="24" y="461" font-family="Arial" font-size="12" fill="#333333">mavs_gc_reject_only_fallback</text>
<rect x="260" y="445" width="2" height="22" fill="#2f6f73"/>
<text x="276" y="461" font-family="Arial" font-size="12" fill="#111111">0.0000</text>
<text x="24" y="491" font-family="Arial" font-size="12" fill="#333333">mavs_gc_shared_representation</text>
<rect x="260" y="475" width="2" height="22" fill="#2f6f73"/>
<text x="276" y="491" font-family="Arial" font-size="12" fill="#111111">0.0000</text>
<text x="24" y="521" font-family="Arial" font-size="12" fill="#333333">mavs_gc_single_diagnostic_only</text>
<rect x="260" y="505" width="2" height="22" fill="#2f6f73"/>
<text x="276" y="521" font-family="Arial" font-size="12" fill="#111111">0.0000</text>
<text x="24" y="551" font-family="Arial" font-size="12" fill="#333333">mavs_gc_accept_reject_only_no_esca</text>
<rect x="260" y="535" width="2" height="22" fill="#2f6f73"/>
<text x="276" y="551" font-family="Arial" font-size="12" fill="#111111">0.0000</text>
<text x="24" y="581" font-family="Arial" font-size="12" fill="#333333">mavs_gc_delayed_threshold</text>
<rect x="260" y="565" width="2" height="22" fill="#2f6f73"/>
<text x="276" y="581" font-family="Arial" font-size="12" fill="#111111">0.0000</text>
<text x="24" y="611" font-family="Arial" font-size="12" fill="#333333">mavs_gc_fixed_severity</text>
<rect x="260" y="595" width="2" height="22" fill="#2f6f73"/>
<text x="276" y="611" font-family="Arial" font-size="12" fill="#111111">0.0000</text>
<text x="24" y="641" font-family="Arial" font-size="12" fill="#333333">mavs_gc_fixed_threshold</text>
<rect x="260" y="625" width="2" height="22" fill="#2f6f73"/>
<text x="276" y="641" font-family="Arial" font-size="12" fill="#111111">0.0000</text>
<text x="24" y="671" font-family="Arial" font-size="12" fill="#333333">mavs_gc_full_mavs_gc</text>
<rect x="260" y="655" width="2" height="22" fill="#2f6f73"/>
<text x="276" y="671" font-family="Arial" font-size="12" fill="#111111">0.0000</text>
<text x="24" y="701" font-family="Arial" font-size="12" fill="#333333">mavs_gc_heterogeneous_specialists</text>
<rect x="260" y="685" width="2" height="22" fill="#2f6f73"/>
<text x="276" y="701" font-family="Arial" font-size="12" fill="#111111">0.0000</text>
<text x="24" y="731" font-family="Arial" font-size="12" fill="#333333">mavs_gc_homogeneous_specialists</text>
<rect x="260" y="715" width="2" height="22" fill="#2f6f73"/>
<text x="276" y="731" font-family="Arial" font-size="12" fill="#111111">0.0000</text>
<text x="24" y="761" font-family="Arial" font-size="12" fill="#333333">mavs_gc_no_diagnostics</text>
<rect x="260" y="745" width="2" height="22" fill="#2f6f73"/>
<text x="276" y="761" font-family="Arial" font-size="12" fill="#111111">0.0000</text>
<text x="24" y="791" font-family="Arial" font-size="12" fill="#333333">mavs_gc_no_escalation</text>
<rect x="260" y="775" width="2" height="22" fill="#2f6f73"/>
<text x="276" y="791" font-family="Arial" font-size="12" fill="#111111">0.0000</text>
<text x="24" y="821" font-family="Arial" font-size="12" fill="#333333">mavs_gc_no_severity</text>
<rect x="260" y="805" width="2" height="22" fill="#2f6f73"/>
<text x="276" y="821" font-family="Arial" font-size="12" fill="#111111">0.0000</text>
<text x="24" y="851" font-family="Arial" font-size="12" fill="#333333">mavs_gc_noisy_severity</text>
<rect x="260" y="835" width="2" height="22" fill="#2f6f73"/>
<text x="276" y="851" font-family="Arial" font-size="12" fill="#111111">0.0000</text>
<text x="24" y="881" font-family="Arial" font-size="12" fill="#333333">mavs_gc_over_sensitive_threshold</text>
<rect x="260" y="865" width="2" height="22" fill="#2f6f73"/>
<text x="276" y="881" font-family="Arial" font-size="12" fill="#111111">0.0000</text>
<text x="24" y="911" font-family="Arial" font-size="12" fill="#333333">mavs_gc_randomized_diagnostic</text>
<rect x="260" y="895" width="2" height="22" fill="#2f6f73"/>
<text x="276" y="911" font-family="Arial" font-size="12" fill="#111111">0.0000</text>
<text x="24" y="941" font-family="Arial" font-size="12" fill="#333333">mavs_gc_reject_only_fallback</text>
<rect x="260" y="925" width="2" height="22" fill="#2f6f73"/>
<text x="276" y="941" font-family="Arial" font-size="12" fill="#111111">0.0000</text>
</svg>